<svg width="25" height="19" viewBox="0 0 25 19" fill="none" xmlns="http://www.w3.org/2000/svg">
<path d="M20.7748 2.38044C19.2798 1.69451 17.6767 1.18913 16.0005 0.899652C15.97 0.894063 15.9395 0.908035 15.9238 0.935934C15.7176 1.30265 15.4893 1.781 15.3293 2.15702C13.5265 1.8871 11.733 1.8871 9.96715 2.15702C9.80718 1.77267 9.57052 1.30265 9.36341 0.935934C9.3477 0.908952 9.31719 0.894979 9.28668 0.899652C7.61147 1.18817 6.00838 1.69355 4.51247 2.38044C4.49951 2.38602 4.48842 2.39532 4.48105 2.40742C1.44032 6.95023 0.607299 11.3814 1.01593 15.7576C1.01776 15.779 1.02981 15.7995 1.04644 15.8125C3.05263 17.2858 4.99601 18.1802 6.90324 18.7731C6.93375 18.7824 6.96609 18.7713 6.98552 18.7461C7.43666 18.13 7.83883 17.4804 8.18365 16.7972C8.20399 16.7572 8.18456 16.7097 8.14297 16.6939C7.50505 16.4519 6.89765 16.1568 6.31334 15.8218C6.26711 15.7948 6.2634 15.7287 6.30596 15.6971C6.42892 15.605 6.55192 15.5091 6.66933 15.4123C6.69059 15.3946 6.72018 15.3909 6.74515 15.402C10.5837 17.1546 14.7394 17.1546 18.5327 15.402C18.5577 15.3899 18.5872 15.3937 18.6094 15.4113C18.7269 15.5081 18.8498 15.6049 18.9737 15.697C19.0162 15.7287 19.0134 15.7948 18.9672 15.8218C18.3829 16.1633 17.7755 16.4519 17.1367 16.6929C17.0951 16.7087 17.0766 16.7571 17.097 16.7971C17.4492 17.4794 17.8514 18.129 18.2942 18.7451C18.3127 18.7712 18.346 18.7824 18.3765 18.773C20.293 18.1802 22.2363 17.2858 24.2425 15.8124C24.2601 15.7994 24.2712 15.7799 24.273 15.7585C24.7621 10.6991 23.4539 6.30426 20.8052 2.40829C20.7988 2.39532 20.7877 2.38602 20.7748 2.38044ZM8.75697 13.0929C7.6013 13.0929 6.64904 12.032 6.64904 10.7289C6.64904 9.42588 7.5828 8.36491 8.75697 8.36491C9.9403 8.36491 10.8834 9.43523 10.8649 10.7289C10.8649 12.032 9.93105 13.0929 8.75697 13.0929ZM16.5506 13.0929C15.395 13.0929 14.4427 12.032 14.4427 10.7289C14.4427 9.42588 15.3765 8.36491 16.5506 8.36491C17.734 8.36491 18.677 9.43523 18.6585 10.7289C18.6585 12.032 17.734 13.0929 16.5506 13.0929Z" fill="white"/>
</svg>
