<svg width="22" height="21" viewBox="0 0 22 21" fill="none" xmlns="http://www.w3.org/2000/svg">
<g clip-path="url(#clip0_736_2640)">
<path d="M21.0831 4.22656L14.7574 10.5115L21.0831 16.7964C21.1974 16.5574 21.2668 16.2932 21.2668 16.011V5.01194C21.2668 4.72975 21.1974 4.46557 21.0831 4.22656Z" fill="white"/>
<path d="M19.4332 3.17871H2.24204C1.95985 3.17871 1.69567 3.24809 1.45667 3.36244L9.54154 11.4066C10.2564 12.1214 11.4189 12.1214 12.1337 11.4066L20.2186 3.36244C19.9796 3.24809 19.7154 3.17871 19.4332 3.17871Z" fill="white"/>
<path d="M0.592539 4.22656C0.478189 4.46557 0.408813 4.72975 0.408813 5.01194V16.011C0.408813 16.2932 0.478189 16.5575 0.592539 16.7964L6.9182 10.5115L0.592539 4.22656Z" fill="white"/>
<path d="M13.8929 11.376L12.9978 12.2711C11.8067 13.4622 9.86853 13.4622 8.67741 12.2711L7.78233 11.376L1.45667 17.6609C1.69567 17.7753 1.95985 17.8446 2.24204 17.8446H19.4332C19.7154 17.8446 19.9796 17.7753 20.2186 17.6609L13.8929 11.376Z" fill="white"/>
</g>
<defs>
<clipPath id="clip0_736_2640">
<rect width="20.8576" height="20.8576" fill="white" transform="translate(0.408752 0.0830078)"/>
</clipPath>
</defs>
</svg>
