<svg width="22" height="33" viewBox="0 0 22 33" fill="none" xmlns="http://www.w3.org/2000/svg">
<path d="M10.667 32.501C4.77446 32.501 0 27.5466 0 21.4705V11.4994C0 5.42323 4.77446 0.5 10.667 0.5C16.5595 0.5 21.334 5.42323 21.334 11.4994V21.4705C21.334 27.5466 16.5595 32.501 10.667 32.501ZM10.667 3.14857C6.19471 3.14857 2.56854 6.88773 2.56854 11.4994V21.4705C2.56854 26.0821 6.19471 29.8212 10.667 29.8212C15.1393 29.8212 18.7654 26.0821 18.7654 21.4705V11.4994C18.7654 6.88773 15.1393 3.14857 10.667 3.14857Z" fill="white"/>
<path d="M10.667 13.8337C9.71606 13.8337 8.88916 13.1408 8.88916 12.2656V8.29055C8.88916 7.45178 9.67471 6.72241 10.667 6.72241C11.6593 6.72241 12.4448 7.41531 12.4448 8.29055V12.2656C12.4448 13.1408 11.6593 13.8337 10.667 13.8337Z" fill="white"/>
</svg>
