<svg width="24" height="23" viewBox="0 0 24 23" fill="none" xmlns="http://www.w3.org/2000/svg">
<g clip-path="url(#clip0_736_2655)">
<path d="M23.011 4.25598C22.1799 4.62053 21.2944 4.86216 20.3712 4.97948C21.3209 4.41242 22.0458 3.52131 22.3866 2.44724C21.5011 2.9752 20.5234 3.34812 19.4815 3.55623C18.6406 2.66094 17.4423 2.10645 16.1349 2.10645C13.5985 2.10645 11.5565 4.1652 11.5565 6.68906C11.5565 7.0522 11.5873 7.40138 11.6627 7.7338C7.85384 7.54803 4.48358 5.72253 2.21951 2.94168C1.82424 3.62746 1.59239 4.41242 1.59239 5.25743C1.59239 6.84409 2.40946 8.25058 3.6274 9.06486C2.89133 9.05089 2.16923 8.8372 1.55747 8.50059C1.55747 8.51456 1.55747 8.53271 1.55747 8.55087C1.55747 10.7772 3.14553 12.6265 5.22803 13.0525C4.85511 13.1544 4.44866 13.2033 4.02686 13.2033C3.73355 13.2033 3.43744 13.1866 3.1595 13.1251C3.7531 14.9394 5.43753 16.2733 7.44042 16.3166C5.88169 17.5359 3.90255 18.2706 1.75999 18.2706C1.38428 18.2706 1.02393 18.2538 0.663574 18.2077C2.693 19.5165 5.09813 20.2637 7.69183 20.2637C16.1224 20.2637 20.7315 13.2801 20.7315 7.22679C20.7315 7.02427 20.7245 6.82873 20.7148 6.63458C21.624 5.9893 22.388 5.1834 23.011 4.25598Z" fill="white"/>
</g>
<defs>
<clipPath id="clip0_736_2655">
<rect width="22.3474" height="22.3474" fill="white" transform="translate(0.663574 0.0117188)"/>
</clipPath>
</defs>
</svg>
